<svg width="23" height="23" viewBox="0 0 23 23" fill="none" xmlns="http://www.w3.org/2000/svg">
<circle cx="11.5" cy="11.5" r="11" fill="#FDFDFD" stroke="#C8C8C8"/>
<path d="M7 8H17M11 10.5V13M13 10.5V13M8 8H16L15.21 15.11C15.1829 15.3547 15.0665 15.5808 14.8831 15.745C14.6997 15.9092 14.4622 16 14.216 16H9.784C9.53782 16 9.30028 15.9092 9.11687 15.745C8.93347 15.5808 8.81708 15.3547 8.79 15.11L8 8ZM9.6725 6.5735C9.75338 6.40198 9.88135 6.257 10.0415 6.15546C10.2017 6.05391 10.3874 6 10.577 6H13.423C13.6127 5.9999 13.7985 6.05377 13.9588 6.15532C14.119 6.25687 14.2471 6.40191 14.328 6.5735L15 8H9L9.6725 6.5735V6.5735Z" stroke="#C8C8C8" stroke-linecap="round" stroke-linejoin="round"/>
</svg>
